<svg width="180" height="45" xmlns="http://www.w3.org/2000/svg" viewBox="0 0 180 45">
  <defs>
    <!-- R için gradient (açık mor tonları - koyu arka plan için) -->
    <linearGradient id="rGradientDark" x1="0%" y1="0%" x2="100%" y2="100%">
      <stop offset="0%" style="stop-color:#8B5CF6;stop-opacity:1" />
      <stop offset="50%" style="stop-color:#A78BFA;stop-opacity:1" />
      <stop offset="100%" style="stop-color:#C4B5FD;stop-opacity:1" />
    </linearGradient>
  </defs>
  
  <!-- Rx Symbol -->
  <g transform="translate(0, 5)">
    <!-- R harfi (büyük, kalın) -->
    <path d="M 0 0 L 0 32 L 18 32 Q 26 32 26 22 Q 26 15 22 12 L 26 0 L 18 0 L 12 10 L 18 10 Q 22 10 22 16 Q 22 22 18 22 L 6 22 L 6 0 Z" 
          fill="url(#rGradientDark)" 
          stroke="none"/>
    
    <!-- x harfi (küçük, açılı) -->
    <path d="M 32 0 L 28 5 L 36 16 L 28 27 L 32 32 L 44 18 L 56 32 L 60 27 L 52 16 L 60 5 L 56 0 L 44 14 Z" 
          fill="#C4B5FD" 
          stroke="none"/>
  </g>
  
  <!-- Rotexia Text (beyaz, bold) -->
  <text x="70" y="28" font-family="Arial, sans-serif" font-size="20" font-weight="bold" fill="#ffffff" letter-spacing="-0.3">
    Rotexia
  </text>
</svg>
